<?xml version="1.0" standalone="no"?>
<!DOCTYPE svg PUBLIC "-//W3C//DTD SVG 20010904//EN"
 "http://www.w3.org/TR/2001/REC-SVG-20010904/DTD/svg10.dtd">
<svg version="1.0" xmlns="http://www.w3.org/2000/svg"
 width="512.000000pt" height="512.000000pt" viewBox="0 0 512.000000 512.000000"
 preserveAspectRatio="xMidYMid meet">
<metadata>
Created by potrace 1.11, written by Peter Selinger 2001-2013
</metadata>
<g transform="translate(0.000000,512.000000) scale(0.100000,-0.100000)"
fill="#000000" stroke="none">
<path d="M1561 4898 c-4 -13 -45 -135 -90 -273 -46 -137 -89 -266 -96 -285 -8
-19 -305 -912 -660 -1985 -356 -1072 -655 -1972 -665 -2000 -10 -27 -25 -73
-33 -101 l-15 -51 787 0 788 0 133 406 c74 223 134 408 135 411 0 3 9 29 19
58 l18 52 681 -2 680 -3 38 -120 c20 -66 54 -174 74 -240 20 -66 40 -131 45
-145 5 -14 23 -72 40 -130 18 -58 45 -146 61 -196 l30 -91 787 -1 c433 0 790
2 793 4 4 2 -15 68 -42 146 -26 79 -143 424 -259 768 -116 344 -237 704 -270
800 -134 398 -526 1560 -590 1750 -38 113 -148 439 -244 724 -97 286 -176 521
-176 523 0 2 -441 3 -980 3 l-980 0 -9 -22z m1043 -1518 c21 -69 39 -132 41
-140 4 -16 313 -1048 319 -1066 3 -9 -105 -12 -405 -12 -225 0 -409 2 -409 5
0 7 135 462 196 658 43 139 186 618 197 658 5 21 13 35 17 30 4 -4 23 -64 44
-133z"/>
</g>
</svg>
